<svg viewBox="0 0 1024 1024" version="1.1" xmlns="http://www.w3.org/2000/svg" p-id="2357" xmlns:xlink="http://www.w3.org/1999/xlink" width="20" height="20"><defs><style type="text/css"></style></defs><path d="M669.269333 319.061333l30.208 30.122667-356.010666 356.010667-30.208-30.122667z" fill="#6B809F" p-id="2358"></path><path d="M355.498667 319.061333l356.010666 356.010667-30.122666 30.122667-356.010667-356.010667z" fill="#6B809F" p-id="2359"></path><path d="M512 955.733333c-247.466667 0-443.733333-204.8-443.733333-443.733333 0-247.466667 204.8-443.733333 443.733333-443.733333 247.466667 0 443.733333 204.8 443.733333 443.733333 0 247.466667-196.266667 443.733333-443.733333 443.733333z m0-853.333333c-221.866667 0-409.6 179.2-409.6 409.6s179.2 409.6 409.6 409.6 409.6-179.2 409.6-409.6-187.733333-409.6-409.6-409.6z" fill="#6B809F" p-id="2360"></path></svg>
