<?xml version="1.0" standalone="no"?><!DOCTYPE svg PUBLIC "-//W3C//DTD SVG 1.1//EN" "http://www.w3.org/Graphics/SVG/1.1/DTD/svg11.dtd"><svg t="1505485876855" class="icon" style="" viewBox="0 0 1024 1024" version="1.1" xmlns="http://www.w3.org/2000/svg" p-id="2338" xmlns:xlink="http://www.w3.org/1999/xlink" width="200" height="200"><defs><style type="text/css"></style></defs><path d="M991.705671 324.531328l-561.928133 558.905286c-42.174542 41.764196-109.565395 42.970674-150.724817 2.422166-40.958854-40.558741-40.145325-107.139136 2.029216-148.910495l562.123584-559.099714c42.174542-41.771359 109.558232-42.776246 150.530388-2.422166C1034.888169 215.97696 1033.880213 282.759969 991.705671 324.531328L991.705671 324.531328zM429.777538 883.435591c-42.174542 41.764196-109.565395 42.970674-150.724817 2.422166L30.271635 641.71327C-10.89495 601.35919-9.87369 534.574135 32.287549 492.802776c42.167379-41.761126 109.558232-42.776246 150.718677-2.419096l248.781086 244.141416C472.960037 775.079744 471.95208 841.664232 429.777538 883.435591L429.777538 883.435591z" p-id="2339" fill="#1afa29"></path></svg>