<svg fill='#ccc' viewBox="0 0 1024 1024" version="1.1" xmlns="http://www.w3.org/2000/svg" p-id="2361" xmlns:xlink="http://www.w3.org/1999/xlink" width="80" height="80"><defs><style type="text/css"></style></defs><path d="M0 92.679215C0 41.493898 41.410278 0 92.679215 0L931.320785 0C982.5061 0 1024 41.410278 1024 92.679215L1024 931.320785C1024 982.5061 982.589724 1024 931.320785 1024L92.679215 1024C41.493898 1024 0 982.589724 0 931.320785L0 92.679215ZM46.545455 92.679215 46.545455 931.320785C46.545455 956.847998 67.164851 977.454545 92.679215 977.454545L931.320785 977.454545C956.847998 977.454545 977.454545 956.835151 977.454545 931.320785L977.454545 92.679215C977.454545 67.152001 956.835151 46.545455 931.320785 46.545455L92.679215 46.545455C67.152001 46.545455 46.545455 67.164851 46.545455 92.679215ZM465.454545 465.454545 186.181818 465.454545 186.181818 558.545455 465.454545 558.545455 465.454545 837.818182 558.545455 837.818182 558.545455 558.545455 837.818182 558.545455 837.818182 465.454545 558.545455 465.454545 558.545455 186.181818 465.454545 186.181818 465.454545 465.454545Z" p-id="2362"></path></svg>
