<svg viewBox="0 0 1024 1024" version="1.1" xmlns="http://www.w3.org/2000/svg" p-id="2365" xmlns:xlink="http://www.w3.org/1999/xlink" width="20" height="20"><defs><style type="text/css"></style></defs><path d="M988.774 353.075c-12.492 0-22.732 10.24-22.732 22.733v499.507c0 50.176-40.756 90.727-90.727 90.727h-726.63c-50.176 0-90.727-40.756-90.727-90.727v-726.63c0-50.176 40.756-90.727 90.727-90.727h499.507c12.493 0 22.733-10.24 22.733-22.732 0-12.493-10.24-22.733-22.733-22.733H148.685c-75.162 0-136.192 61.03-136.192 136.192V875.11c0 75.162 61.03 136.192 136.192 136.192H875.11c75.162 0 136.192-61.03 136.192-136.192V375.808c0.205-12.493-10.035-22.733-22.528-22.733zM262.35 761.651l193.74-33.177 522.24-522.24c20.48-20.48 33.178-48.948 33.178-80.282 0-62.669-50.79-113.46-113.459-113.46-31.334 0-59.802 12.698-80.282 33.178l-522.24 522.24-33.177 193.741zM849.715 77.824c12.288-12.288 29.287-19.866 48.128-19.866 37.683 0 68.199 30.516 68.199 68.199 0 18.841-7.578 35.84-19.866 48.128L916.89 203.57l-96.256-96.256 29.081-29.491z m-61.44 61.44l96.256 96.256-417.997 418.202v-96.256h-96.256l417.997-418.202zM336.486 602.726h84.583v84.583l-102.195 17.613 17.612-102.196z" p-id="2366"></path></svg>
